<?xml version="1.0" standalone="no"?>
<!DOCTYPE svg PUBLIC "-//W3C//DTD SVG 20010904//EN"
 "http://www.w3.org/TR/2001/REC-SVG-20010904/DTD/svg10.dtd">
<svg version="1.0" xmlns="http://www.w3.org/2000/svg"
 width="1254.000000pt" height="1254.000000pt" viewBox="0 0 1254.000000 1254.000000"
 preserveAspectRatio="xMidYMid meet">

<g transform="translate(0.000000,1254.000000) scale(0.100000,-0.100000)"
fill="#000000" stroke="none">
<path d="M0 6270 l0 -6270 6270 0 6270 0 0 6270 0 6270 -6270 0 -6270 0 0
-6270z m7862 5354 c196 -27 351 -71 492 -141 122 -60 193 -113 246 -183 37
-48 51 -59 75 -60 17 0 59 -11 95 -23 64 -22 65 -23 137 -127 111 -160 118
-178 118 -290 0 -81 -4 -102 -24 -143 -14 -26 -35 -54 -48 -63 -24 -15 -24
-18 -18 -102 22 -279 -92 -598 -288 -806 l-55 -58 59 -87 c63 -94 105 -190
140 -321 34 -125 34 -370 1 -520 -27 -117 -86 -284 -132 -368 -16 -31 -29 -56
-27 -57 1 -1 92 -8 202 -14 729 -42 2070 -160 2595 -227 63 -8 136 -17 163
-21 30 -4 47 -11 47 -19 0 -8 6 -14 14 -14 21 0 24 -48 15 -270 -5 -113 -10
-234 -11 -269 l-3 -65 62 -23 c45 -18 63 -30 67 -47 7 -30 -39 -777 -74 -1181
-6 -66 -22 -264 -35 -440 -14 -176 -35 -428 -46 -560 l-21 -240 -123 -125
-123 -125 -6 -165 c-7 -173 -22 -505 -56 -1225 -36 -788 -42 -909 -54 -1109
l-11 -200 -225 -56 -224 -55 -74 -185 -74 -185 -306 -33 c-419 -46 -2785 -307
-3002 -331 -525 -61 -1008 -111 -1063 -111 -34 0 -179 14 -322 30 -227 27
-677 77 -1905 214 -173 20 -565 63 -870 96 -305 33 -634 69 -730 80 -96 10
-252 27 -347 37 l-171 17 -74 186 -73 185 -220 56 c-202 51 -221 57 -227 80
-4 13 -16 249 -28 524 -26 615 -73 1620 -94 2028 l-5 87 -94 102 -94 101 -7
106 c-4 58 -14 187 -21 286 -44 544 -65 825 -75 955 -44 612 -70 987 -70 1005
0 18 9 24 58 35 31 7 62 16 67 20 6 5 8 53 3 132 -3 67 -7 180 -7 249 l-1 127
33 6 c126 22 1206 146 1822 208 61 6 113 14 117 17 4 3 0 30 -7 60 -38 142
-27 348 26 505 139 415 510 730 980 832 102 23 361 25 454 5 88 -19 207 -67
267 -108 113 -76 213 -197 274 -329 32 -70 36 -89 38 -165 1 -80 -1 -91 -34
-155 -48 -93 -101 -127 -207 -132 -73 -4 -111 5 -161 36 l-23 15 32 19 c18 11
40 20 50 21 14 1 15 4 7 14 -9 11 -6 12 16 3 122 -46 242 65 222 205 -12 78
-78 193 -162 283 -66 71 -89 89 -169 128 -117 56 -208 76 -360 77 -240 1 -452
-66 -670 -211 -411 -273 -590 -737 -440 -1138 l23 -61 -61 -7 c-34 -4 -192
-20 -351 -37 -634 -65 -1598 -178 -1607 -187 -5 -6 0 -161 15 -414 l5 -86 -65
-12 c-35 -7 -66 -15 -68 -19 -2 -3 0 -55 5 -116 17 -228 60 -818 74 -1025 36
-526 87 -1095 98 -1099 18 -6 146 -132 144 -141 -1 -5 1 -7 4 -6 3 0 13 -5 21
-12 12 -9 16 -36 17 -115 2 -113 38 -924 76 -1697 8 -162 20 -416 27 -563 10
-225 14 -270 27 -276 9 -5 104 -30 211 -56 122 -30 201 -54 210 -64 8 -10 44
-90 80 -179 62 -154 67 -162 95 -167 17 -2 226 -25 465 -50 632 -65 1224 -129
1635 -175 198 -22 565 -63 815 -90 250 -27 644 -70 875 -96 476 -52 404 -53
935 6 195 22 528 58 740 80 212 22 466 50 565 61 365 40 1087 119 1325 144
632 68 1142 124 1144 127 2 2 33 80 71 173 37 94 69 171 70 173 2 2 101 28
221 59 121 30 220 56 221 57 3 3 23 399 48 926 8 179 22 467 30 640 26 543 34
729 41 920 l6 185 106 107 c59 60 114 108 123 108 22 0 29 20 29 78 0 26 11
173 25 327 13 154 31 366 39 470 9 105 22 278 31 385 26 327 74 1054 70 1060
-2 4 -32 15 -66 25 -33 10 -63 24 -66 30 -2 7 3 118 12 247 15 242 19 358 10
358 -3 0 -83 9 -178 20 -854 97 -1972 190 -2819 236 l-126 6 43 67 c141 219
211 436 221 686 5 117 3 156 -14 235 -33 160 -109 318 -204 424 l-48 55 36 27
c55 42 166 178 219 266 55 92 107 232 125 335 13 70 10 330 -4 363 -5 11 6 21
36 35 59 27 80 71 76 151 -3 48 -10 71 -31 100 -15 22 -50 73 -78 115 -48 74
-52 77 -107 92 -31 9 -76 18 -99 22 -34 5 -47 13 -63 41 -28 45 -125 131 -195
173 -115 70 -302 128 -503 158 -153 22 -459 22 -632 0 -508 -66 -961 -232
-1365 -502 -563 -375 -878 -859 -878 -1350 0 -158 20 -262 68 -364 125 -262
320 -397 606 -419 l93 -7 -145 -137 c-202 -191 -375 -331 -559 -454 -412 -275
-870 -439 -1175 -421 -101 6 -179 23 -195 42 -6 7 -16 49 -22 93 -10 69 -9 92
6 164 18 84 44 156 79 216 20 34 36 38 19 5 -5 -10 -6 -29 -2 -43 l7 -25 8 28
c4 15 5 40 2 55 -4 21 4 39 35 80 130 169 318 272 495 272 73 0 73 0 73 -28 0
-15 4 -41 9 -57 l8 -31 -67 4 c-132 8 -266 -51 -380 -167 -70 -71 -150 -195
-150 -232 0 -8 -7 -27 -17 -44 -10 -18 -18 -63 -21 -117 l-4 -88 28 -11 c19
-7 77 -9 169 -6 111 4 164 12 255 35 385 100 803 341 1215 703 46 41 84 77 84
80 1 4 -27 14 -61 24 -370 103 -615 518 -568 958 50 466 314 884 777 1231 421
316 917 519 1473 605 182 28 176 28 417 29 146 1 248 -3 325 -14z m38 -253
c266 -57 449 -160 540 -301 l32 -50 62 0 c92 0 132 -14 145 -52 19 -53 17 -53
-69 -50 -44 2 -80 1 -80 -2 0 -3 12 -45 26 -93 36 -121 38 -288 5 -413 -28
-106 -95 -245 -160 -330 -66 -87 -209 -224 -298 -285 -40 -28 -73 -52 -73 -55
0 -4 15 -11 34 -18 18 -7 60 -30 93 -51 307 -198 360 -626 129 -1037 -123
-219 -337 -436 -572 -582 -338 -210 -716 -311 -1018 -273 -161 21 -256 61
-348 149 -136 130 -172 314 -100 524 77 228 273 429 545 558 154 74 238 94
382 95 111 0 124 -2 175 -27 73 -36 102 -79 98 -144 -3 -47 -4 -49 -35 -52
-27 -3 -33 1 -39 22 -15 62 -107 87 -226 63 -178 -36 -357 -142 -518 -306
-155 -159 -220 -279 -228 -429 -5 -98 12 -154 66 -214 68 -75 167 -108 323
-108 203 0 419 77 654 231 130 85 345 294 438 425 123 175 217 399 238 570 26
211 -56 415 -194 486 l-40 20 -121 -61 c-318 -159 -580 -185 -627 -63 -35 90
96 206 298 264 68 20 101 23 248 22 l170 0 100 100 c212 214 328 459 329 696
1 103 -32 240 -57 240 -40 0 -259 -159 -417 -302 -210 -190 -387 -385 -695
-768 -636 -790 -941 -1106 -1400 -1450 -705 -528 -1440 -796 -1965 -715 -183
28 -305 83 -416 187 -117 112 -175 249 -176 418 -2 446 414 863 917 919 210
24 419 -36 501 -145 34 -44 55 -115 45 -151 -6 -22 -13 -28 -36 -28 -24 0 -33
8 -54 50 -92 178 -415 214 -689 76 -242 -122 -411 -326 -473 -571 -28 -108
-23 -256 10 -339 74 -184 231 -277 484 -288 334 -15 730 120 1186 406 421 264
774 605 1520 1466 426 491 729 788 1044 1023 165 123 363 243 479 290 37 15
68 32 68 39 0 23 -115 114 -200 158 -112 57 -216 91 -344 110 -119 17 -343 20
-466 5 -395 -49 -822 -226 -1142 -472 -366 -283 -619 -652 -688 -1005 -18 -91
-9 -266 17 -323 76 -169 287 -198 528 -72 151 79 307 209 445 369 185 213 290
409 290 541 0 60 -41 102 -99 102 -113 0 -306 -121 -392 -247 -34 -48 -64 -62
-87 -40 -14 14 -12 22 16 80 75 153 240 278 426 324 82 20 155 9 217 -31 115
-76 110 -281 -13 -506 -134 -245 -323 -455 -542 -601 -357 -240 -702 -264
-885 -63 -88 96 -123 206 -123 379 0 533 438 1086 1127 1425 254 125 477 203
728 254 222 46 330 55 592 51 194 -3 258 -7 335 -24z m-213 -227 c-3 -3 -12
-4 -19 -1 -8 3 -5 6 6 6 11 1 17 -2 13 -5z m40 -10 c-3 -3 -12 -4 -19 -1 -8 3
-5 6 6 6 11 1 17 -2 13 -5z m171 -50 c28 -12 52 -26 52 -29 0 -3 -10 -1 -22 6
-11 6 -51 22 -87 35 -37 14 -51 21 -31 18 19 -4 59 -17 88 -30z m-44 -605
c-10 -12 -32 -30 -49 -41 -17 -12 -11 -4 15 20 49 45 64 54 34 21z m-2173
-137 c-5 -9 -19 -26 -32 -37 -19 -16 -18 -13 5 18 30 39 43 49 27 19z m1135
-200 c-12 -11 -13 4 -7 68 l6 65 3 -64 c2 -35 1 -66 -2 -69z m748 49 c-8 -16
-32 -45 -53 -64 -22 -20 -37 -37 -35 -40 2 -2 -5 -12 -16 -22 -11 -10 -20 -13
-20 -7 0 7 5 12 12 12 6 0 9 3 5 6 -5 5 109 144 119 144 1 0 -4 -13 -12 -29z
m-757 -83 c-3 -8 -6 -5 -6 6 -1 11 2 17 5 13 3 -3 4 -12 1 -19z m-7 -28 c0 -5
-2 -10 -4 -10 -3 0 -8 5 -11 10 -3 6 -1 10 4 10 6 0 11 -4 11 -10z m-32 -91
c-11 -32 -56 -109 -64 -109 -2 0 13 34 33 75 39 78 51 92 31 34z m515 -129
c-10 -17 -33 -45 -52 -63 -30 -28 -28 -24 13 31 51 66 68 81 39 32z m-1887
-81 c-8 -35 -14 -56 -15 -47 -1 23 20 120 25 115 2 -2 -2 -33 -10 -68z m1804
-23 c0 -2 -8 -10 -17 -17 -16 -13 -17 -12 -4 4 13 16 21 21 21 13z m-1823 -68
c-3 -8 -6 -5 -6 6 -1 11 2 17 5 13 3 -3 4 -12 1 -19z m-10 -125 c-2 -16 -4 -3
-4 27 0 30 2 43 4 28 2 -16 2 -40 0 -55z m819 -268 c-11 -8 -25 -15 -30 -15
-6 1 0 7 14 15 32 19 40 18 16 0z m621 -26 c-12 -15 -60 -70 -107 -122 -80
-88 -117 -123 -125 -115 -8 7 225 265 239 265 11 0 10 -7 -7 -28z m-272 -291
c-21 -24 -42 -47 -46 -52 -5 -6 -9 -7 -9 -3 0 8 80 97 87 97 3 0 -12 -19 -32
-42z m-465 -808 c0 -5 -8 -10 -17 -10 -15 0 -16 2 -3 10 19 12 20 12 20 0z
m2287 -540 c28 -12 61 -33 74 -46 12 -13 25 -24 29 -24 3 0 14 16 23 36 12 25
22 34 33 30 9 -3 24 -6 35 -6 18 0 19 -10 19 -203 l0 -203 -27 2 c-16 1 -37 3
-48 3 -17 1 -23 12 -32 64 -27 143 -83 237 -153 258 -82 25 -155 -15 -188
-104 -40 -106 -47 -187 -47 -522 0 -365 10 -440 66 -508 54 -65 139 -69 194
-7 18 20 20 39 23 238 3 211 3 217 -18 234 -12 10 -37 20 -56 24 -32 6 -34 9
-34 45 l0 39 98 -5 c53 -3 150 -8 215 -11 l117 -6 0 -34 c0 -30 -3 -34 -40
-44 -22 -6 -44 -19 -50 -30 -6 -11 -10 -132 -10 -312 l0 -294 -38 4 c-32 3
-42 10 -66 48 -15 24 -30 44 -32 44 -2 0 -24 -15 -48 -34 -63 -48 -105 -59
-200 -54 -62 4 -93 11 -132 31 -58 29 -123 98 -153 161 -107 220 -99 783 14
1005 89 178 268 252 432 181z m-2509 -57 c-3 -33 -7 -38 -38 -45 -74 -19 -70
15 -70 -611 l0 -560 84 6 c47 3 98 13 114 21 38 20 68 81 95 196 l22 90 37 0
38 0 0 -200 0 -200 -47 0 c-52 0 -368 -15 -550 -26 l-113 -6 0 35 c0 32 4 37
35 47 69 23 65 -16 65 595 0 611 4 576 -65 589 -32 6 -35 10 -35 40 l0 34 125
7 c103 6 208 15 293 24 9 1 12 -10 10 -36z m3707 -43 c0 -31 -3 -35 -35 -41
-73 -15 -69 15 -70 -610 0 -345 3 -567 9 -578 6 -10 31 -24 56 -31 42 -12 45
-15 45 -46 0 -33 -1 -34 -42 -34 -34 1 -385 26 -395 29 -2 1 -3 16 -3 35 0 31
3 34 39 40 76 12 71 -29 71 612 l0 574 -32 20 c-18 11 -41 20 -50 20 -14 0
-18 8 -18 33 0 19 2 36 4 38 3 2 98 -3 213 -11 l208 -15 0 -35z m-2415 6 c0
-5 39 -175 159 -695 63 -269 107 -441 117 -452 9 -10 32 -21 50 -25 32 -6 34
-9 34 -45 l0 -38 -217 6 c-120 3 -219 7 -221 8 -1 1 1 16 4 33 5 25 14 33 48
44 41 13 41 13 39 60 -1 39 -30 192 -50 261 -4 16 -18 17 -146 15 l-142 -3
-34 -149 c-24 -106 -31 -154 -24 -165 5 -9 28 -20 51 -25 38 -9 42 -13 42 -41
l0 -32 -92 -7 c-50 -3 -122 -6 -160 -6 l-69 0 3 36 c3 32 8 38 37 48 19 6 42
22 52 36 10 14 73 251 144 540 69 283 130 532 136 552 l10 37 82 4 c45 1 97 4
115 5 17 1 32 0 32 -2z m3342 -27 c183 -39 298 -179 344 -419 33 -171 27 -490
-12 -659 -55 -241 -214 -367 -414 -331 -125 23 -217 88 -283 200 -67 115 -105
358 -93 605 18 402 143 604 378 614 15 1 51 -4 80 -10z m-5802 -32 c0 -19 -8
-26 -40 -36 -22 -6 -44 -20 -50 -31 -6 -12 -10 -216 -10 -572 l0 -554 86 8
c89 8 123 21 148 61 13 20 39 102 66 215 10 41 12 42 50 42 l40 0 -6 -197 c-4
-109 -8 -199 -9 -201 -1 -1 -96 -9 -211 -18 -115 -8 -253 -19 -308 -24 -54 -6
-118 -10 -143 -10 -44 0 -44 1 -41 31 3 26 9 33 43 45 22 7 45 21 52 31 19 25
19 1091 0 1116 -6 10 -26 21 -42 25 -25 7 -14 11 65 21 101 13 265 48 290 62
21 12 20 12 20 -14z m-930 -221 l0 -164 -32 -5 c-18 -2 -34 -4 -35 -3 -2 1
-14 42 -28 92 -18 63 -33 96 -52 112 -25 22 -31 23 -107 17 -127 -11 -117 11
-114 -258 l3 -232 35 3 c53 5 94 20 106 39 6 10 17 42 23 71 7 28 16 52 19 52
4 0 17 3 30 6 l22 6 0 -200 c0 -173 -2 -201 -16 -206 -32 -12 -42 -5 -53 42
-21 84 -33 93 -104 90 l-62 -3 0 -270 0 -270 25 1 c205 11 234 33 283 219 l24
90 36 3 37 3 0 -185 c0 -102 -4 -187 -8 -190 -5 -3 -152 -21 -328 -40 -175
-20 -334 -38 -351 -41 -32 -6 -33 -5 -33 28 0 30 5 36 33 47 72 29 67 -18 67
591 l0 548 -22 15 c-12 9 -35 16 -50 16 -25 0 -28 3 -28 35 0 31 3 35 33 40
104 17 518 56 568 53 32 -1 59 0 59 5 0 4 5 7 10 7 6 0 10 -61 10 -164z
m-1329 -19 c52 -22 95 -63 120 -115 30 -62 33 -201 6 -279 -21 -60 -88 -140
-141 -168 -20 -11 -36 -22 -36 -26 0 -4 17 -9 39 -13 60 -9 132 -63 164 -122
49 -93 47 -260 -5 -371 -44 -94 -147 -175 -258 -203 -83 -20 -495 -78 -503
-70 -5 4 -7 20 -5 36 2 20 11 30 33 37 17 5 40 19 53 30 l22 20 0 544 c0 334
-4 551 -10 562 -6 12 -26 21 -55 26 -45 6 -46 7 -43 38 3 37 -18 31 280 72
182 25 282 26 339 2z m8976 -304 c-3 -10 -5 -4 -5 12 0 17 2 24 5 18 2 -7 2
-21 0 -30z m-20 -300 c-2 -16 -4 -5 -4 22 0 28 2 40 4 28 2 -13 2 -35 0 -50z
m-27 -408 c-12 -159 -23 -294 -25 -300 -7 -21 -5 96 4 191 5 55 16 187 23 294
7 107 14 175 16 150 2 -25 -6 -175 -18 -335z m137 328 c-3 -10 -5 -2 -5 17 0
19 2 27 5 18 2 -10 2 -26 0 -35z m-10 -140 c-2 -16 -4 -5 -4 22 0 28 2 40 4
28 2 -13 2 -35 0 -50z m-10 -135 c-2 -13 -4 -3 -4 22 0 25 2 35 4 23 2 -13 2
-33 0 -45z m-150 -435 c-2 -16 -4 -5 -4 22 0 28 2 40 4 28 2 -13 2 -35 0 -50z
m-5225 16 c27 -14 68 -50 68 -60 0 -3 -16 -19 -36 -34 l-35 -27 -21 22 c-42
45 -127 54 -172 19 -52 -41 -25 -90 59 -104 87 -15 157 -39 185 -65 65 -61 43
-182 -42 -230 -92 -52 -250 -35 -317 34 l-32 33 36 30 36 30 33 -33 c54 -54
159 -59 206 -9 16 17 21 31 16 49 -8 32 -43 50 -123 64 -99 17 -151 44 -169
89 -30 70 -3 147 64 186 59 35 183 38 244 6z m738 -229 l0 -260 -50 0 -50 0 0
260 0 260 50 0 50 0 0 -260z m778 97 c56 -83 111 -163 122 -177 l20 -25 0 173
0 172 50 0 50 0 0 -138 c0 -77 -3 -194 -7 -260 l-6 -122 -46 1 -46 1 -120 181
c-66 99 -121 174 -122 166 -1 -7 -4 -85 -5 -172 -2 -86 -6 -157 -10 -157 -5 0
-26 0 -48 0 l-40 0 0 255 0 255 53 0 52 0 103 -153z m1135 80 c83 -49 127
-131 127 -236 0 -163 -95 -261 -251 -261 -134 0 -220 62 -254 183 -28 99 -6
207 53 271 15 16 50 39 77 53 70 34 181 29 248 -10z m-3652 1 c6 -11 53 -123
104 -249 l93 -227 -30 -6 c-67 -13 -75 -9 -94 45 l-18 50 -111 -6 c-60 -4
-113 -10 -116 -14 -4 -3 -14 -27 -24 -53 l-18 -48 -48 0 c-27 0 -49 3 -49 7 0
10 37 110 123 330 75 194 71 189 144 192 24 1 35 -5 44 -21z m-905 -49 c28 -7
62 -27 91 -53 l46 -42 -42 -27 -42 -28 -34 30 c-88 77 -216 33 -251 -86 -26
-88 4 -176 71 -207 67 -32 136 -18 189 40 l32 35 37 -17 c20 -10 37 -24 37
-31 0 -26 -85 -100 -135 -116 -218 -75 -395 95 -330 319 23 79 96 153 175 176
67 20 98 21 156 7z m5435 -204 c322 -26 805 -71 872 -81 35 -6 37 -7 37 -45 0
-49 30 -48 -385 -9 -176 16 -441 39 -590 51 -148 11 -270 21 -271 22 -4 8 10
87 16 87 4 0 148 -11 321 -25z m-6231 -115 c0 -22 -4 -40 -9 -40 -5 0 -142
-13 -303 -30 -654 -67 -930 -96 -985 -105 l-33 -6 0 46 c0 40 3 45 23 45 12 0
76 7 142 15 123 15 443 50 830 90 121 13 246 23 278 24 l57 1 0 -40z m2926
-390 c26 -22 16 -40 -21 -40 -40 0 -44 13 -17 59 14 26 18 28 20 12 2 -11 10
-25 18 -31z m115 -184 c94 -22 179 -81 179 -125 0 -13 -2 -13 -12 1 -20 23
-80 56 -144 78 -89 31 -240 28 -345 -7 -45 -15 -93 -38 -110 -54 -36 -34 -38
-21 -3 21 72 84 273 125 435 86z m6 -82 c28 -9 67 -30 88 -46 l36 -30 -2 -103
c-1 -57 1 -107 3 -111 3 -5 8 -21 12 -36 l6 -27 -57 30 c-90 46 -198 63 -308
48 -91 -12 -165 -37 -197 -66 -17 -15 -18 -14 -18 10 0 18 12 36 40 58 39 31
40 34 40 94 0 65 -14 93 -37 74 -9 -8 -13 -36 -13 -85 0 -40 -4 -75 -9 -78 -4
-3 -9 32 -9 77 -2 104 14 134 91 172 97 47 220 54 334 19z m-2100 -179 c460
-94 989 -187 1440 -254 l192 -28 32 33 c17 18 59 45 93 60 52 24 77 29 173 32
94 3 122 1 175 -17 73 -24 132 -62 149 -94 12 -22 12 -22 -10 -3 -11 11 -21
16 -21 12 0 -3 -15 1 -32 10 -39 20 -125 44 -153 43 -11 0 11 -9 49 -19 41
-11 78 -28 90 -41 12 -13 14 -18 6 -12 -8 6 -43 21 -77 32 -75 25 -215 28
-288 6 -69 -20 -68 -11 2 13 50 18 54 21 27 21 -17 1 -51 -6 -75 -14 -24 -9
-49 -13 -55 -11 -17 7 -63 -31 -74 -60 -5 -13 -14 -24 -20 -24 -6 0 -9 4 -6 8
2 4 -10 6 -28 4 -110 -13 -1784 283 -1807 320 -11 18 -1 29 24 23 12 -3 99
-21 194 -40z m4108 -2 c-4 -10 -7 -30 -6 -44 1 -26 -1 -27 -96 -44 -54 -9
-154 -28 -223 -41 -157 -31 -616 -105 -820 -134 -274 -38 -604 -80 -630 -79
-34 2 34 14 173 33 139 19 418 59 597 86 74 11 171 25 215 30 88 11 202 31
340 60 50 10 140 28 200 40 116 21 245 59 208 59 -12 1 -89 -12 -170 -28 -375
-74 -683 -125 -1193 -195 -442 -62 -430 -60 -430 -42 0 19 -18 16 345 66 513
71 1218 189 1430 239 61 14 68 13 60 -6z m-4142 -48 c402 -86 888 -172 1477
-261 118 -18 219 -42 180 -43 -80 -2 -1048 156 -1435 235 -148 30 -283 58
-300 61 -21 4 -27 2 -20 -5 6 -6 33 -15 60 -20 28 -5 163 -33 301 -60 238 -49
626 -115 1162 -198 l242 -38 0 -231 c-1 -160 -4 -225 -11 -213 -5 10 -9 26 -7
35 2 13 -6 19 -32 24 -19 4 -30 7 -25 8 6 0 16 15 23 31 8 17 17 28 22 25 11
-7 22 77 14 109 -3 14 -11 26 -17 26 -20 0 -47 -33 -48 -59 -1 -25 -2 -25 -9
4 -6 24 -8 18 -9 -32 0 -34 -5 -65 -11 -68 -6 -4 -10 41 -10 129 0 109 -3 138
-16 150 -20 20 -38 20 -58 0 -21 -20 -24 -270 -3 -277 6 -2 -1 -4 -17 -4 -15
0 -24 2 -20 6 5 3 11 65 13 137 3 123 2 133 -18 153 -26 26 -36 26 -61 1 -18
-18 -20 -33 -20 -140 0 -113 -1 -120 -20 -120 -19 0 -20 7 -20 133 0 140 -5
157 -45 157 -40 0 -45 -18 -45 -155 l0 -131 78 -13 c106 -17 110 -18 82 -21
-23 -1 -24 -2 -5 -11 20 -9 -101 -3 -136 7 -21 6 -30 -35 -22 -94 6 -48 5 -47
56 -56 l37 -7 0 65 c0 63 1 66 23 62 20 -3 22 -8 19 -62 -2 -46 1 -62 15 -71
16 -12 16 -13 0 -13 -14 0 -17 -10 -17 -55 0 -50 -2 -55 -22 -55 -22 0 -23 3
-20 60 l4 60 -36 2 c-20 0 -42 1 -48 2 -9 1 -15 -20 -19 -59 l-6 -60 -1 61
c-2 66 -9 73 -69 74 -21 0 -23 -5 -24 -47 -1 -27 -1 -51 0 -55 0 -5 -10 -8
-24 -8 l-25 0 0 130 0 130 25 0 c24 0 25 -2 25 -64 0 -69 5 -76 61 -76 l29 0
0 69 c0 79 10 72 -125 91 -112 16 -105 20 -105 -59 0 -72 6 -81 51 -81 10 0
19 -4 19 -8 0 -4 -15 -6 -34 -4 l-34 4 -9 -59 -8 -58 -5 60 -5 60 -40 6 c-22
4 -44 3 -49 -1 -4 -4 -6 -31 -5 -59 4 -49 3 -50 -21 -44 -33 8 -38 13 -12 13
19 0 22 6 22 43 0 24 3 47 7 51 10 9 4 78 -7 90 -5 5 -6 15 -3 22 3 8 0 14 -5
14 -6 0 -13 -24 -15 -52 -3 -49 -3 -48 -5 16 -2 58 0 67 14 62 9 -3 20 -6 25
-6 5 0 9 -29 9 -64 l0 -64 41 -4 c22 -2 42 -2 45 1 2 2 4 34 4 71 l0 66 -108
17 c-60 9 -114 17 -120 17 -8 0 -12 -24 -12 -75 l0 -75 33 0 c17 0 39 -5 47
-11 11 -8 3 -9 -32 -5 l-48 6 0 -60 c0 -33 -4 -60 -10 -60 -6 0 -10 26 -10 59
0 64 -7 71 -72 71 -27 0 -28 -2 -28 -55 0 -54 -1 -55 -28 -55 -28 0 -29 0 -24
53 5 61 -4 72 -63 79 l-40 5 2 -58 c0 -33 -3 -59 -8 -59 -5 0 -9 26 -9 59 0
58 -1 59 -31 65 -67 13 -69 11 -69 -52 l0 -59 -30 5 c-28 4 -30 7 -30 47 0 23
3 83 7 134 l6 91 29 -2 c28 -2 28 -3 28 -69 l0 -67 41 -7 c22 -4 43 -4 47 0 4
4 7 32 7 63 0 32 5 57 10 57 6 0 9 -27 7 -66 l-3 -67 43 -4 c24 -3 46 -3 51
-1 4 2 7 31 7 65 0 51 2 59 16 54 9 -3 22 -6 30 -6 11 0 14 -15 14 -64 l0 -63
41 -7 c23 -4 43 -5 46 -3 2 3 5 35 6 73 l2 68 -175 28 c-96 15 -193 32 -215
38 -22 7 -49 11 -60 11 -16 0 -17 2 -5 10 11 7 6 9 -20 7 -22 -2 -40 3 -48 12
-10 11 -11 11 -6 1 8 -16 -38 -12 -181 14 -241 45 -471 89 -555 106 -52 11
-108 22 -124 24 -16 3 -52 12 -80 20 -28 8 -67 19 -86 23 -28 7 -36 13 -38 36
-3 20 0 26 8 21 24 -15 187 -47 260 -50 103 -6 172 -13 190 -21 20 -8 127 -17
119 -10 -3 3 -82 19 -175 35 -350 60 -414 74 -420 94 -3 10 -4 20 -2 22 6 6
790 -142 848 -160 11 -4 14 -17 12 -54 -4 -57 -14 -51 125 -74 l82 -14 7 64
c4 44 3 68 -6 78 -7 8 -8 15 -3 15 6 0 13 28 16 63 7 71 -9 107 -46 107 -37 0
-47 -19 -47 -92 l0 -68 33 -2 32 -1 -31 -4 c-35 -5 -44 -21 -44 -85 0 -21 -4
-38 -10 -38 -6 0 -10 28 -10 65 0 36 -4 66 -10 66 -5 1 -14 3 -20 4 -5 1 -19
3 -30 4 -11 0 -20 5 -20 10 0 4 18 5 40 1 l40 -7 0 77 c0 73 -1 77 -25 88 -32
15 -31 15 -49 -4 -12 -11 -16 -36 -16 -95 0 -89 3 -86 -80 -67 l-51 12 2 158
c1 87 6 158 11 158 4 0 81 -16 171 -35z m4137 -174 l0 -139 -50 -11 c-28 -6
-55 -11 -60 -11 -6 0 -10 35 -10 78 0 66 -3 82 -20 97 -24 22 -63 14 -77 -17
-6 -14 -8 -80 -5 -165 3 -92 1 -143 -5 -143 -16 0 -23 52 -23 167 0 120 -8
143 -50 143 -51 0 -58 -23 -52 -180 l5 -140 -37 0 -36 0 0 126 c0 69 -5 134
-10 145 -13 23 -53 25 -74 3 -19 -18 -18 -7 -16 -171 1 -81 -2 -133 -8 -133
-13 0 -25 144 -20 227 1 34 1 61 -2 60 -3 -1 -15 5 -28 12 -20 10 -27 10 -48
-4 -27 -18 -26 -8 -24 -177 1 -107 -1 -128 -13 -128 -9 0 -22 -3 -31 -6 -14
-5 -16 9 -16 122 0 105 -3 131 -17 146 -21 24 -48 23 -74 -3 -21 -21 -22 -28
-15 -150 4 -76 3 -130 -3 -133 -5 -4 -12 47 -15 122 -4 70 -10 134 -15 142 -4
8 -20 16 -34 18 -46 6 -57 -26 -59 -173 l-2 -130 -6 120 c-3 66 -9 119 -14
117 -4 -1 -8 -54 -7 -117 1 -75 -2 -115 -8 -115 -7 0 -11 44 -11 123 0 113 -2
126 -21 143 -19 17 -23 17 -47 3 l-27 -15 -3 -137 c-1 -75 -6 -137 -11 -137
-5 0 -10 57 -10 127 -2 134 -8 153 -47 153 -43 0 -54 -33 -54 -167 0 -68 -3
-123 -7 -123 -5 0 -6 45 -5 101 3 64 0 105 -7 112 -8 8 -11 -22 -11 -108 0
-65 -3 -115 -7 -112 -3 4 -5 58 -4 121 2 104 0 117 -18 135 -24 24 -40 26 -65
8 -16 -11 -18 -29 -17 -144 1 -80 -2 -134 -9 -138 -7 -4 -10 38 -10 124 0 104
-3 133 -16 145 -21 21 -40 20 -64 -4 -18 -18 -20 -35 -22 -147 l-2 -128 -3
108 c-2 59 -8 107 -13 107 -5 0 -11 -51 -13 -112 l-3 -113 -2 124 c-2 131 -12
161 -53 161 -39 0 -49 -37 -49 -173 0 -90 -3 -126 -11 -121 -7 4 -10 48 -7
129 3 133 -6 162 -46 150 -12 -3 -26 -7 -33 -9 -7 -1 -16 -6 -20 -11 -5 -4 -2
-5 6 0 11 6 13 4 8 -9 -4 -10 -8 -75 -9 -144 l-2 -127 -6 110 c-3 61 -7 96 -8
78 -2 -30 -19 -39 -38 -20 -4 4 -16 7 -26 7 -15 0 -18 -8 -18 -55 0 -56 2 -59
56 -107 48 -42 48 -48 0 -48 -25 0 -48 -4 -51 -10 -4 -6 11 -10 37 -10 l43 -1
-28 -15 c-15 -8 -32 -12 -37 -9 -5 3 -12 -11 -15 -32 -4 -21 -8 -42 -10 -48
-2 -5 -4 69 -5 165 -1 96 -4 214 -6 262 l-3 86 87 12 c818 112 1419 207 1667
264 33 8 66 15 73 15 9 1 12 -33 12 -138z m-2007 -37 c32 -10 72 -31 90 -47
17 -16 24 -23 14 -16 -27 19 -36 -3 -32 -80 1 -36 1 -52 -1 -36 -8 60 -14 72
-38 83 -42 19 -57 -6 -55 -93 1 -39 -3 -81 -9 -91 -10 -17 -12 -16 -13 11 -1
17 0 58 1 93 2 78 -17 115 -58 110 -26 -3 -27 -5 -30 -71 -2 -42 2 -74 9 -83
8 -10 8 -14 0 -14 -7 0 -11 -22 -11 -60 0 -33 -4 -60 -8 -60 -5 0 -7 26 -6 59
3 52 0 60 -19 69 -16 8 -17 11 -6 11 12 1 18 15 22 54 9 74 1 97 -33 97 -46 0
-60 -23 -62 -98 l-1 -67 -7 50 c-6 49 -6 49 -11 15 -5 -33 -6 -32 -7 11 -3 62
-23 80 -65 56 -20 -12 -26 -13 -19 -4 18 21 -18 52 -38 34 -8 -6 -6 -1 5 11
62 75 246 101 388 56z m2717 -12 c0 -27 -33 -40 -150 -56 -69 -10 -190 -30
-270 -46 -80 -15 -167 -31 -195 -35 -40 -6 -45 -9 -26 -14 13 -4 85 6 160 21
75 16 147 26 160 23 27 -7 133 13 142 26 3 6 26 5 56 -1 28 -6 60 -10 70 -8
12 2 18 -3 18 -17 0 -24 40 -15 -590 -129 -132 -24 -199 -30 -191 -17 4 6 24
11 44 11 20 0 44 5 52 11 11 7 -1 9 -43 7 -56 -3 -57 -2 -57 24 0 14 -3 33 -6
41 -6 17 13 22 231 62 77 14 232 43 345 65 217 41 250 45 250 32z m-25 -62
c-3 -5 -30 -9 -58 -8 l-52 1 50 7 c28 4 54 8 58 8 5 1 5 -2 2 -8z m-5613 -46
c4 -3 5 -38 1 -79 -6 -81 -7 -80 67 -88 24 -2 25 0 28 71 2 57 6 72 18 72 14
0 15 -12 13 -77 -4 -71 -2 -78 16 -81 49 -7 65 -13 65 -23 0 -8 -15 -9 -45 -5
l-45 7 0 -60 c0 -50 -3 -61 -16 -61 -15 0 -16 8 -11 60 4 32 3 61 -2 64 -4 3
-26 8 -48 12 l-40 6 -7 -62 -7 -62 -52 7 c-29 4 -53 9 -55 10 -2 2 0 71 4 155
l7 152 50 -7 c28 -3 54 -8 59 -11z m3057 -36 c-1 -29 -3 -44 -6 -33 -3 11 -15
31 -26 44 l-22 24 23 -12 c19 -10 22 -9 22 9 0 11 2 20 5 20 3 0 4 -24 4 -52z
m2550 -185 c1 -123 6 -115 -71 -129 l-38 -6 0 62 0 62 -46 -7 c-76 -11 -76
-11 -72 -76 2 -42 -1 -59 -9 -59 -7 0 -10 7 -7 15 4 8 0 35 -7 59 -12 42 -15
44 -43 39 -17 -2 -36 -6 -43 -8 -7 -2 -15 0 -18 6 -7 10 3 15 59 24 l39 6 -6
74 c-4 55 -2 75 8 79 9 3 15 -15 20 -71 l7 -75 30 6 c17 3 41 6 54 6 23 0 24
3 24 78 l0 78 53 10 52 9 7 -35 c4 -19 7 -85 7 -147z m-5341 161 c20 -6 22
-12 22 -79 l0 -73 43 -4 c23 -3 44 -3 47 -1 2 2 6 33 8 68 6 89 22 82 22 -9
l0 -73 41 -7 c23 -4 43 -5 46 -3 2 2 6 33 10 69 6 64 6 64 34 60 29 -4 29 -5
29 -77 l0 -73 43 -4 c23 -3 43 -4 45 -3 1 1 5 32 9 69 3 36 10 66 14 66 5 0 9
-34 9 -75 l0 -75 29 0 c16 0 36 -2 44 -6 11 -4 16 10 21 64 l7 70 27 -7 c26
-7 27 -10 27 -77 l0 -69 43 -6 c23 -3 44 -3 47 -1 3 3 5 31 5 63 0 86 19 83
22 -3 3 -73 3 -73 33 -76 17 -2 35 -8 40 -14 7 -7 -3 -9 -31 -5 l-42 5 -6 -59
c-4 -32 -12 -59 -18 -59 -7 0 -9 19 -5 60 6 56 5 60 -16 64 -12 3 -34 7 -49
11 l-28 5 0 -60 c0 -52 -2 -60 -19 -60 -41 0 -46 8 -43 69 l4 59 -42 7 c-51 9
-60 -1 -60 -67 0 -27 -4 -48 -10 -48 -6 0 -10 28 -10 64 l0 63 -41 7 c-23 4
-44 5 -46 2 -2 -2 -7 -29 -10 -60 -5 -44 -9 -56 -20 -52 -8 4 -21 6 -29 6 -11
0 -14 15 -14 64 l0 63 -37 7 c-64 10 -63 11 -63 -54 0 -41 -4 -60 -12 -60 -10
0 -12 18 -10 65 3 52 1 65 -11 65 -8 0 -28 3 -45 6 l-31 6 -7 -62 c-6 -56 -9
-61 -28 -56 -11 3 -26 6 -33 6 -8 0 -10 24 -7 83 8 135 15 207 22 207 4 0 17
-3 30 -6z m4966 -100 c3 -26 5 -86 5 -133 -2 -85 -2 -84 -11 38 -5 69 -10 126
-11 128 -2 1 -13 0 -25 -4 -20 -5 -22 -12 -22 -65 0 -50 3 -61 18 -65 14 -3
18 -11 14 -29 -2 -13 -8 -27 -13 -30 -5 -3 -9 -20 -9 -39 0 -27 4 -34 23 -37
18 -3 16 -5 -10 -9 l-33 -6 0 64 c0 56 -2 64 -17 60 -10 -3 -35 -8 -57 -12
l-39 -6 6 -60 c3 -32 4 -59 2 -59 -2 0 -10 -3 -19 -6 -14 -5 -16 4 -16 58 l0
64 -51 -6 c-45 -6 -49 -5 -33 7 10 7 26 13 35 13 43 0 49 10 49 81 0 55 3 69
15 69 12 0 15 -14 15 -68 l0 -69 33 4 c83 10 80 7 75 83 -3 63 -2 70 17 73 49
10 52 8 59 -39z m-2238 -1 c-3 -3 -12 -3 -21 1 -13 5 -14 8 -3 20 11 12 14 12
21 -1 5 -8 6 -17 3 -20z m61 -55 c-2 -13 -4 -5 -4 17 -1 22 1 32 4 23 2 -10 2
-28 0 -40z m1856 -85 c7 -150 6 -153 -50 -153 l-33 0 2 58 2 57 3 -52 c4 -51
5 -53 33 -53 16 0 31 4 35 10 11 17 -7 141 -19 132 -6 -5 -18 -8 -26 -8 -8 1
-23 -7 -32 -16 -10 -10 -33 -18 -50 -18 -18 0 -38 -4 -44 -8 -16 -11 -26 -110
-11 -116 7 -2 4 -5 -5 -5 -15 -1 -18 8 -18 54 0 61 0 61 -72 49 l-38 -7 0 -51
c0 -37 -3 -47 -10 -36 -6 9 -10 11 -10 3 0 -7 -7 -10 -15 -7 -9 4 -15 0 -15
-8 0 -10 10 -14 33 -12 l32 3 -35 -9 c-19 -4 -36 -7 -38 -5 -2 1 -6 28 -9 59
-5 46 -9 56 -22 51 -33 -10 -131 -15 -131 -7 0 11 96 25 110 17 6 -3 10 -1 10
4 0 6 7 11 15 11 12 0 15 14 15 64 0 58 2 64 23 70 45 12 47 9 47 -59 0 -64 0
-65 25 -60 14 3 36 7 50 10 24 5 25 9 25 70 0 51 3 65 15 65 12 0 15 -14 15
-65 l0 -64 48 3 c26 2 51 4 56 5 4 0 7 34 5 74 l-4 72 35 6 c19 4 38 7 41 8 3
0 9 -61 12 -136z m-1913 66 c0 -31 -4 -48 -10 -44 -11 7 -13 54 -4 79 10 27
14 18 14 -35z m-353 19 c-3 -8 -6 -5 -6 6 -1 11 2 17 5 13 3 -3 4 -12 1 -19z
m1550 -24 c-3 -3 -12 -4 -19 -1 -8 3 -5 6 6 6 11 1 17 -2 13 -5z m-1372 -25
c-23 -6 -17 -7 25 -4 36 2 48 0 35 -5 -11 -5 -60 -8 -110 -8 -49 1 -74 3 -55
6 29 4 32 6 15 12 -13 6 5 8 50 8 56 0 64 -2 40 -9z m1590 -44 c0 -72 -19 -72
-23 0 -2 40 1 55 10 55 9 0 13 -17 13 -55z m-432 38 c-7 -2 -21 -2 -30 0 -10
3 -4 5 12 5 17 0 24 -2 18 -5z m306 -65 c0 -55 -2 -59 -11 -35 l-10 27 -17
-22 c-10 -13 -20 -31 -24 -40 -3 -10 -19 -20 -34 -23 -15 -4 -38 -8 -50 -11
-21 -4 -23 -11 -24 -67 -1 -34 -4 -48 -6 -32 -11 92 -12 95 -44 95 -18 0 -28
4 -24 10 3 6 17 10 31 10 23 0 24 3 24 65 0 80 18 86 22 8 l3 -58 48 -3 47 -3
0 70 0 71 35 0 35 0 -1 -62z m-1499 -27 c0 -46 4 -71 13 -74 6 -3 -17 -5 -53
-5 -68 0 -70 2 -10 12 l36 6 -4 65 c-3 44 -1 65 7 65 7 0 11 -25 11 -69z
m-2015 -95 c331 -54 784 -118 1245 -176 91 -11 190 -24 220 -29 l55 -8 -63 -2
c-58 -1 -62 -2 -48 -17 24 -23 11 -34 -42 -35 -39 -1 -33 -4 38 -14 50 -7 70
-13 49 -14 -52 -2 -853 100 -1319 168 -120 18 -513 79 -901 141 l-136 22 -6
51 c-4 27 -5 53 -2 57 2 3 145 -17 317 -46 172 -29 439 -73 593 -98z m2229
146 c3 -5 -1 -9 -9 -9 -8 0 -12 4 -9 9 3 4 7 8 9 8 2 0 6 -4 9 -8z m997 -96
c0 -54 -2 -100 -6 -104 -3 -3 -6 11 -5 33 0 22 -2 60 -4 85 -3 25 -5 51 -5 59
-1 11 -4 11 -16 1 -8 -6 -16 -34 -18 -63 -3 -48 -3 -47 -5 15 -2 66 -2 67 26
70 15 2 28 3 29 2 2 0 3 -44 4 -98z m-507 69 c-7 -17 -53 -19 -94 -4 -22 7
-20 8 12 6 20 -2 34 1 32 5 -3 4 8 8 25 8 23 0 29 -4 25 -15z m371 -116 c19
-8 19 -8 -2 -15 -20 -6 -23 -14 -25 -68 l-2 -61 -3 63 c-4 66 -4 66 -65 56
l-38 -7 0 -58 c0 -56 -1 -59 -25 -59 -24 0 -25 2 -23 58 l2 57 3 -52 c3 -36 8
-53 18 -53 18 0 26 118 8 125 -7 2 -14 12 -14 22 -1 10 -5 5 -9 -12 -5 -21 -8
-9 -7 45 0 61 1 67 6 30 4 -33 8 -40 14 -27 4 10 7 31 8 45 1 48 18 -7 18 -61
1 -41 4 -48 19 -43 9 3 29 8 45 12 15 3 28 14 29 23 0 9 2 34 3 56 4 65 8 64
14 -4 5 -52 10 -66 26 -72z m-955 64 c0 -36 -4 -53 -9 -44 -12 19 -18 3 -20
-61 -2 -70 16 -79 22 -10 l3 47 2 -52 c2 -47 0 -53 -18 -53 -18 0 -20 7 -21
63 -2 124 9 183 22 122 6 -29 7 -29 8 8 2 60 11 43 11 -20z m633 50 c-7 -2
-19 -2 -25 0 -7 3 -2 5 12 5 14 0 19 -2 13 -5z m-546 -95 c-2 -18 -4 -4 -4 32
0 36 2 50 4 33 2 -18 2 -48 0 -65z m-350 20 c-2 -13 -4 -3 -4 22 0 25 2 35 4
23 2 -13 2 -33 0 -45z m933 -4 l0 -67 45 6 c27 4 45 3 45 -3 0 -6 -10 -10 -22
-10 -57 0 -68 -10 -68 -56 0 -24 -4 -44 -10 -44 -5 0 -10 18 -10 40 0 38 -1
40 -32 40 l-33 1 33 14 c31 14 32 15 32 80 0 37 4 65 10 65 6 0 10 -29 10 -66z
m-1273 50 c-3 -3 -12 -4 -19 -1 -8 3 -5 6 6 6 11 1 17 -2 13 -5z m3325 -6 c-7
-7 -12 -31 -12 -55 0 -24 -3 -43 -8 -43 -4 0 -81 -11 -172 -25 -159 -24 -631
-91 -813 -116 -48 -7 -89 -10 -92 -7 -3 2 35 10 83 17 76 10 88 15 89 32 1 11
-2 17 -8 14 -5 -4 -9 -2 -9 4 0 13 19 24 48 27 13 2 27 6 31 10 11 11 -219
-15 -281 -32 -14 -4 -16 -9 -8 -25 8 -13 7 -19 0 -19 -6 0 -8 -4 -5 -10 4 -6
-7 -10 -25 -10 -17 0 -29 4 -26 8 2 4 -4 8 -15 8 -10 0 -19 -6 -19 -12 0 -7
-8 -15 -17 -18 -10 -2 20 -3 67 -1 l85 4 -120 -18 c-66 -11 -158 -21 -205 -24
l-85 -6 75 13 c52 9 64 14 40 15 l-35 1 25 20 c14 11 33 20 43 20 10 0 15 4
12 10 -3 5 -35 8 -72 5 -93 -6 -157 -16 -146 -24 17 -11 13 -51 -5 -52 -9 -1
1 -5 23 -8 33 -6 18 -9 -80 -19 -66 -7 -149 -17 -185 -22 -36 -5 -105 -11
-155 -14 l-90 -5 75 9 c93 12 114 17 73 19 -26 1 -34 6 -39 26 -6 24 -10 25
-78 26 l-71 2 100 13 c55 7 204 25 330 39 368 42 828 106 1320 185 328 52 376
57 357 38z m-3339 -146 l42 -11 -42 3 -43 4 0 -44 c0 -24 -4 -44 -10 -44 -5 0
-10 20 -10 45 0 36 -4 45 -17 46 -17 1 -17 2 0 6 11 3 18 15 19 36 6 101 12
117 15 41 l4 -71 42 -11z m1165 105 c-1 -37 -2 -38 -5 -9 -2 17 -8 32 -13 32
-5 0 -11 -15 -13 -32 -3 -30 -4 -30 -5 7 -2 34 1 41 18 42 17 2 20 -4 18 -40z
m-781 1 c-3 -7 -5 -2 -5 12 0 14 2 19 5 13 2 -7 2 -19 0 -25z m686 -99 c23 -1
33 -3 22 -6 -69 -14 -65 -9 -67 -71 l-2 -57 -3 58 -4 57 -42 1 -42 1 43 10 42
9 2 67 2 67 3 -67 4 -68 42 -1z m-1016 -76 c-2 -38 -3 -7 -3 67 0 74 1 105 3
68 2 -38 2 -98 0 -135z m860 35 c-2 -29 -3 -6 -3 52 0 58 1 81 3 53 2 -29 2
-77 0 -105z m1215 70 c2 -19 -2 -33 -9 -35 -10 -4 -13 12 -12 59 1 51 2 57 9
35 5 -16 10 -42 12 -59z m-2815 -25 c-2 -16 -4 -3 -4 27 0 30 2 43 4 28 2 -16
2 -40 0 -55z m-1608 -7 c-1 -122 -25 -506 -32 -512 -4 -4 -7 19 -8 52 0 32 -3
52 -7 44 -4 -8 -14 -15 -22 -15 -8 0 -20 7 -27 15 -11 13 -13 12 -14 -5 -2
-11 -5 12 -8 50 -5 59 -7 43 -15 -103 -4 -95 -10 -171 -13 -168 -6 5 16 683
22 702 2 8 21 8 64 1 l61 -10 -1 -51z m2648 -8 c-2 -13 -4 -3 -4 22 0 25 2 35
4 23 2 -13 2 -33 0 -45z m1640 20 c-3 -8 -6 -5 -6 6 -1 11 2 17 5 13 3 -3 4
-12 1 -19z m-4033 -4 l39 -7 -7 -66 c-3 -36 -6 -102 -7 -146 -1 -57 -3 -71 -8
-49 -10 40 -20 55 -34 53 -34 -4 -46 3 -50 29 -3 22 -5 19 -7 -13 -1 -22 -6
-89 -10 -150 -6 -87 -7 -73 -4 70 6 243 12 297 33 291 9 -3 33 -8 55 -12z
m2743 -16 c-3 -8 -6 -5 -6 6 -1 11 2 17 5 13 3 -3 4 -12 1 -19z m1003 -23 c0
-21 -4 -25 -27 -24 -24 2 -25 2 -5 6 14 3 22 12 22 24 0 10 2 19 5 19 3 0 5
-11 5 -25z m293 18 c-7 -2 -21 -2 -30 0 -10 3 -4 5 12 5 17 0 24 -2 18 -5z
m-3728 -242 c-4 -119 -9 -218 -11 -220 -2 -2 -4 53 -4 122 0 96 -3 126 -12
125 -7 -2 -16 -6 -19 -11 -3 -4 -15 -9 -27 -12 -18 -3 -22 1 -24 23 -1 15 -5
-9 -8 -53 l-6 -80 -2 105 c-1 58 1 135 4 171 l7 65 54 -10 55 -10 -7 -215z
m4713 117 c-1 -107 -6 -95 -10 30 -2 39 0 72 5 72 4 0 6 -46 5 -102z m339 10
c-2 -18 -4 -4 -4 32 0 36 2 50 4 33 2 -18 2 -48 0 -65z m763 78 c0 -2 -8 -10
-17 -17 -16 -13 -17 -12 -4 4 13 16 21 21 21 13z m-3525 -15 l40 -9 -40 0
c-22 -1 -58 3 -80 7 l-40 9 40 0 c22 1 58 -3 80 -7z m-2044 -11 l39 0 -1 -102
c0 -62 -4 -95 -8 -83 -5 11 -6 27 -4 35 3 10 2 11 -4 4 -9 -13 -43 -15 -43 -3
0 5 -6 6 -12 4 -22 -9 -38 -57 -39 -119 -1 -34 -4 -50 -6 -36 -3 14 -2 89 2
168 6 120 10 142 22 138 8 -3 32 -6 54 -6z m1918 6 c-2 -2 -26 -6 -54 -10 -34
-4 -45 -3 -35 4 14 9 99 15 89 6z m378 -48 c-3 -7 -5 -2 -5 12 0 14 2 19 5 13
2 -7 2 -19 0 -25z m1840 -75 c-2 -21 -4 -4 -4 37 0 41 2 58 4 38 2 -21 2 -55
0 -75z m-4839 72 c65 -10 52 -29 -15 -20 -66 8 -83 14 -83 27 0 5 12 7 28 4
15 -3 46 -8 70 -11z m1014 -6 c2 -2 1 -69 -2 -149 l-6 -145 -2 141 c-2 152 -3
154 -57 154 -19 0 -24 -6 -28 -32 -3 -30 -4 -29 -5 8 l-2 40 50 -6 c27 -3 51
-8 52 -11z m1581 -11 c-8 -14 -19 -8 -20 12 -1 16 1 17 12 7 7 -6 11 -15 8
-19z m47 6 c0 -2 -7 -4 -15 -4 -8 0 -15 4 -15 10 0 5 7 7 15 4 8 -4 15 -8 15
-10z m-317 -1 c-13 -2 -35 -2 -50 0 -16 2 -5 4 22 4 28 0 40 -2 28 -4z m740 0
c-7 -2 -19 -2 -25 0 -7 3 -2 5 12 5 14 0 19 -2 13 -5z m297 -13 c-14 -4 -50
-8 -80 -8 l-55 1 45 7 c25 4 61 7 80 8 31 0 32 -1 10 -8z m-602 -8 c13 -4 -30
-7 -94 -7 -65 0 -107 2 -93 6 31 9 157 9 187 1z m-1470 -54 l-1 -53 -6 45 c-6
43 -5 60 5 60 2 0 3 -24 2 -52z m1051 36 c11 -10 -9 -9 -59 2 l-55 13 55 -6
c30 -3 57 -7 59 -9z m488 0 c-3 -3 -12 -4 -19 -1 -8 3 -5 6 6 6 11 1 17 -2 13
-5z m193 2 c0 -3 -4 -8 -10 -11 -5 -3 -10 -1 -10 4 0 6 5 11 10 11 6 0 10 -2
10 -4z m-2700 -16 c0 -6 -11 -8 -27 -4 -40 10 -41 14 -5 14 18 0 32 -5 32 -10z
m3787 -102 c-2 -24 -4 -7 -4 37 0 44 2 63 4 43 2 -21 2 -57 0 -80z m-2619 95
c-14 -3 -18 -19 -21 -76 l-3 -72 -2 78 c-2 74 -1 77 21 76 16 -1 17 -3 5 -6z
m849 -50 c-3 -10 -5 -2 -5 17 0 19 2 27 5 18 2 -10 2 -26 0 -35z m-1824 30
c-7 -2 -19 -2 -25 0 -7 3 -2 5 12 5 14 0 19 -2 13 -5z m2882 -13 c-27 -5 -70
-8 -95 -8 l-45 1 45 7 c25 4 68 7 95 7 l50 0 -50 -7z m3016 -13 c-10 -9 -11
-8 -5 6 3 10 9 15 12 12 3 -3 0 -11 -7 -18z m-5500 -83 l-8 -69 -2 55 c0 30 2
66 6 80 11 42 14 7 4 -66z m2302 79 c-13 -2 -33 -2 -45 0 -13 2 -3 4 22 4 25
0 35 -2 23 -4z m-2026 -85 c-2 -18 -4 -6 -4 27 0 33 2 48 4 33 2 -15 2 -42 0
-60z m790 50 c-3 -7 -5 -2 -5 12 0 14 2 19 5 13 2 -7 2 -19 0 -25z m1151 25
c-10 -2 -28 -2 -40 0 -13 2 -5 4 17 4 22 1 32 -1 23 -4z m1919 -100 c-2 -21
-4 -4 -4 37 0 41 2 58 4 38 2 -21 2 -55 0 -75z m-4174 90 c-7 -2 -21 -2 -30 0
-10 3 -4 5 12 5 17 0 24 -2 18 -5z m3770 -10 c-7 -2 -19 -2 -25 0 -7 3 -2 5
12 5 14 0 19 -2 13 -5z m-1939 -43 c26 -44 39 -152 40 -332 1 -80 4 -150 9
-154 4 -4 7 11 7 34 0 52 16 55 27 5 12 -59 6 -321 -12 -535 -6 -64 -5 -88 4
-88 6 0 11 6 12 13 1 6 5 -4 9 -23 5 -19 7 -80 5 -135 -2 -55 0 -125 5 -155 5
-30 15 -102 22 -160 6 -58 13 -98 15 -90 9 42 24 321 23 435 0 74 4 137 9 145
9 12 11 9 11 -12 0 -16 5 -28 11 -28 8 0 9 11 5 33 -15 72 -19 256 -7 333 14
90 32 124 55 105 15 -13 36 -85 36 -126 0 -15 4 -24 10 -20 6 4 10 54 10 118
0 166 38 327 77 327 46 -1 69 -51 79 -173 4 -48 11 -90 15 -93 12 -7 11 -70 0
-114 -5 -19 -12 -71 -15 -115 l-5 -80 16 63 c9 34 20 62 24 62 20 0 30 -88 25
-199 -11 -213 -14 -386 -6 -361 l7 25 12 -28 c6 -17 11 -89 11 -178 l0 -149
29 0 c17 0 31 6 35 16 3 8 13 78 23 154 14 116 15 143 4 164 -21 39 4 231 34
256 36 30 65 -103 60 -288 -1 -73 1 -135 6 -138 5 -3 9 -24 9 -47 0 -23 3 -59
6 -79 6 -33 10 -38 34 -38 l28 0 7 151 c8 155 21 187 28 64 1 -38 4 3 5 92 1
89 5 168 8 177 3 9 1 16 -5 16 -6 0 -12 -10 -13 -22 -2 -31 -15 123 -22 255
-3 67 -1 118 6 135 l11 27 10 -35 c10 -31 12 -20 18 90 7 122 28 230 51 257
24 29 52 10 73 -47 17 -48 20 -78 18 -229 -1 -113 2 -170 9 -163 5 5 12 28 15
51 11 77 23 27 33 -127 5 -83 11 -156 15 -161 3 -6 -2 -40 -12 -77 l-18 -66
-11 58 c-11 58 -11 57 -13 -63 -1 -76 3 -123 9 -123 6 0 10 20 10 44 0 47 13
68 24 39 4 -9 4 -42 0 -75 -4 -39 -3 -63 5 -72 7 -8 15 -58 18 -110 l6 -96 38
0 c45 0 42 -16 44 205 2 137 18 210 45 210 21 0 39 -116 35 -225 -2 -47 -1
-109 2 -137 l6 -53 38 0 39 0 0 66 c0 72 19 82 21 11 2 -40 2 -40 9 13 12 83
11 211 -1 250 -12 40 -2 240 12 240 5 0 10 -8 10 -17 1 -10 5 34 9 97 11 166
46 239 92 192 33 -33 51 -126 51 -267 0 -71 3 -116 6 -100 17 86 47 -34 36
-145 -8 -83 -8 -186 2 -275 8 -66 10 -70 34 -73 26 -3 27 -2 31 67 6 113 38
108 38 -6 l0 -63 39 0 38 0 6 66 c4 37 2 74 -3 85 -14 24 -13 121 1 156 l12
28 11 -35 c9 -31 11 -23 17 80 3 63 7 116 8 117 55 75 93 26 101 -131 5 -92 8
-107 17 -86 9 21 12 23 18 8 4 -9 6 -41 6 -70 -4 -242 -9 -228 77 -228 58 0
53 -9 57 97 2 60 22 113 41 113 22 0 36 -39 48 -129 l12 -86 37 -6 c20 -3 40
-8 43 -11 3 -3 -475 -8 -1063 -11 -587 -2 -1079 -8 -1092 -12 -23 -8 -24 -9
-5 -16 24 -9 -151 -11 -185 -2 -23 6 -23 7 -5 14 10 4 -141 9 -336 10 -1364 8
-1970 15 -1922 23 l52 9 0 45 c0 25 4 59 9 76 6 17 14 47 18 66 10 40 36 51
52 22 14 -27 24 -97 22 -154 -2 -54 -1 -54 91 -42 l46 6 16 83 c15 75 15 85 0
120 -15 36 -14 72 3 129 5 18 6 18 18 -4 11 -21 13 -10 17 81 4 119 26 182 66
187 39 6 56 -52 55 -187 -1 -73 2 -110 8 -100 5 7 9 24 9 37 0 13 4 21 9 18
17 -11 22 -80 10 -136 -13 -59 -13 -94 -4 -178 6 -50 8 -53 33 -50 26 3 27 6
34 83 4 43 11 86 14 95 10 22 21 -31 23 -107 1 -63 1 -63 30 -63 l29 0 5 83
c2 45 7 124 11 176 4 65 2 99 -6 108 -16 20 -15 219 2 258 l13 30 7 -30 c4
-20 9 8 12 80 6 132 23 236 43 276 19 35 59 40 75 9 24 -44 42 -193 36 -295
-6 -95 -3 -101 20 -40 6 19 7 18 14 -5 15 -46 11 -225 -5 -270 -8 -24 -15 -76
-15 -119 1 -69 2 -74 15 -57 14 18 15 8 15 -93 l0 -113 53 4 52 3 6 65 c4 36
5 111 4 166 -7 233 61 338 83 129 5 -57 5 -100 -1 -118 -5 -16 -6 -72 -2 -133
l7 -104 39 0 39 0 1 43 c1 57 16 217 27 297 5 36 6 85 1 111 -11 64 -10 377 2
422 13 49 29 38 31 -21 1 -26 5 12 9 83 8 146 33 335 48 363 15 28 37 43 54
36 45 -17 70 -159 57 -334 -8 -111 1 -175 13 -90 3 23 8 45 12 48 18 19 25
-37 23 -178 -3 -133 -6 -159 -22 -183 -16 -24 -18 -39 -12 -103 3 -43 1 -106
-6 -145 -8 -53 -8 -73 0 -81 9 -9 12 -2 12 29 0 23 4 44 9 47 13 8 21 -73 21
-216 l0 -129 23 7 c12 3 23 8 25 9 9 8 33 319 28 372 -10 121 27 343 58 343
15 0 36 -83 42 -170 2 -36 6 -171 8 -301 2 -130 6 -241 10 -247 4 -6 13 -9 20
-6 10 4 16 36 21 113 4 60 11 114 16 122 6 9 7 -12 3 -58 -7 -79 3 -190 16
-177 5 5 13 108 19 229 6 121 13 258 16 305 7 112 7 112 -4 205 -6 44 -8 89
-6 100 12 62 16 75 25 75 6 0 10 -13 10 -29 0 -17 3 -32 8 -34 4 -3 8 82 9
188 1 162 5 203 22 262 32 107 75 132 105 61 24 -56 35 -146 43 -338 7 -191 8
-192 29 -25 2 22 9 47 14 55 16 25 44 -2 52 -51 11 -60 14 -300 6 -374 -3 -33
-4 -50 -1 -37 11 54 23 2 23 -102 0 -62 4 -137 9 -167 5 -30 13 -112 16 -183
4 -71 11 -123 15 -115 9 18 22 231 25 424 1 83 6 159 12 170 10 20 25 291 16
281 -3 -3 -9 -20 -13 -38 -10 -48 -24 160 -18 277 6 114 18 139 33 70 10 -45
12 -32 18 135 6 193 22 287 53 321 22 25 34 21 58 -21z m4723 8 c-3 -7 -5 -2
-5 12 0 14 2 19 5 13 2 -7 2 -19 0 -25z m-6340 16 c-3 -3 -12 -4 -19 -1 -8 3
-5 6 6 6 11 1 17 -2 13 -5z m460 -101 c-2 -21 -4 -4 -4 37 0 41 2 58 4 38 2
-21 2 -55 0 -75z m2860 40 c-2 -16 -4 -5 -4 22 0 28 2 40 4 28 2 -13 2 -35 0
-50z m-3680 -115 c-2 -35 -3 -9 -3 57 0 66 1 94 3 63 2 -32 2 -86 0 -120z
m-742 146 l50 -13 -65 5 c-36 3 -69 10 -74 15 -14 13 29 10 89 -7z m3842 -91
c-2 -21 -4 -4 -4 37 0 41 2 58 4 38 2 -21 2 -55 0 -75z m2958 87 c10 -11 16
-20 13 -20 -3 0 -13 9 -23 20 -10 11 -16 20 -13 20 3 0 13 -9 23 -20z m-6628
-142 c-2 -29 -3 -8 -3 47 0 55 1 79 3 53 2 -26 2 -71 0 -100z m82 106 c2 -2
-10 -4 -27 -4 -18 0 -32 5 -32 10 0 9 47 4 59 -6z m-2332 -56 c-2 -13 -4 -3
-4 22 0 25 2 35 4 23 2 -13 2 -33 0 -45z m7270 -25 c-2 -16 -4 -3 -4 27 0 30
2 43 4 28 2 -16 2 -40 0 -55z m-4628 41 c2 -2 -14 -4 -37 -4 -23 0 -42 5 -42
10 0 10 67 4 79 -6z m1328 10 c-3 -3 -12 -4 -19 -1 -8 3 -5 6 6 6 11 1 17 -2
13 -5z m-1540 -176 c-2 -35 -3 -9 -3 57 0 66 1 94 3 63 2 -32 2 -86 0 -120z
m6390 140 c-3 -7 -5 -2 -5 12 0 14 2 19 5 13 2 -7 2 -19 0 -25z m144 15 c13
-16 12 -17 -3 -4 -10 7 -18 15 -18 17 0 8 8 3 21 -13z m36 -5 c-3 -8 -6 -5 -6
6 -1 11 2 17 5 13 3 -3 4 -12 1 -19z m-7410 -10 c-3 -8 -6 -5 -6 6 -1 11 2 17
5 13 3 -3 4 -12 1 -19z m7083 -3 c11 -13 10 -14 -4 -9 -9 3 -16 10 -16 15 0
13 6 11 20 -6z m487 -22 c-3 -10 -5 -4 -5 12 0 17 2 24 5 18 2 -7 2 -21 0 -30z
m-6284 20 c-7 -2 -19 -2 -25 0 -7 3 -2 5 12 5 14 0 19 -2 13 -5z m934 -115
c-2 -24 -4 -5 -4 42 0 47 2 66 4 43 2 -24 2 -62 0 -85z m5693 -175 c-6 -158
-15 -351 -18 -428 l-7 -140 -40 0 -40 0 -6 164 c-6 147 -9 166 -27 180 -15 12
-21 33 -26 91 -9 110 -13 119 -62 141 -43 18 -44 20 -44 63 0 25 5 48 10 51 6
3 10 1 10 -5 0 -6 5 -8 11 -5 6 4 10 1 8 -6 -3 -24 1 -40 9 -36 4 3 7 -5 7
-18 0 -15 -5 -21 -14 -17 -10 4 -12 1 -7 -7 5 -7 17 -11 27 -8 11 3 17 2 14
-3 -3 -4 2 -10 10 -14 25 -9 28 14 4 35 -23 20 -21 38 3 23 7 -5 18 -9 23 -10
6 -1 19 -5 30 -9 20 -8 20 -7 1 7 -19 15 -19 16 -3 33 13 13 21 14 31 6 11 -9
15 -5 20 20 3 18 10 28 16 24 8 -5 7 -12 -2 -23 -12 -14 -10 -14 10 -3 12 6
22 16 22 22 0 6 4 8 9 5 14 -9 21 21 21 96 0 39 3 69 6 65 3 -3 1 -135 -6
-294z m-6530 278 c0 -6 -17 -7 -37 -4 -52 8 -54 13 -5 13 23 0 42 -4 42 -9z
m6044 -7 c3 -8 2 -12 -4 -9 -6 3 -10 10 -10 16 0 14 7 11 14 -7z m-7427 -16
c-3 -8 -6 -5 -6 6 -1 11 2 17 5 13 3 -3 4 -12 1 -19z m7240 0 c-3 -8 -6 -5 -6
6 -1 11 2 17 5 13 3 -3 4 -12 1 -19z m-5460 -80 c-2 -18 -4 -4 -4 32 0 36 2
50 4 33 2 -18 2 -48 0 -65z m-214 75 c-7 -2 -19 -2 -25 0 -7 3 -2 5 12 5 14 0
19 -2 13 -5z m-1016 -136 c-2 -23 -3 -1 -3 48 0 50 1 68 3 42 2 -26 2 -67 0
-90z m570 21 c-2 -24 -4 -7 -4 37 0 44 2 63 4 43 2 -21 2 -57 0 -80z m-1136
-183 c-6 -116 -11 -247 -11 -291 0 -68 -4 -86 -21 -108 -13 -17 -19 -36 -16
-51 5 -28 3 -28 -67 -19 l-47 7 7 176 7 176 -60 18 c-41 13 -87 18 -143 16
-98 -2 -93 -9 -81 121 l8 85 2 -97 c1 -86 3 -98 19 -97 10 0 12 3 5 6 -8 2
-13 21 -12 41 0 20 3 31 6 24 7 -17 75 -50 91 -45 6 3 12 0 12 -5 0 -6 -8 -13
-17 -15 -10 -3 2 -5 27 -5 25 0 37 2 27 5 -15 4 -16 7 -5 21 11 13 10 15 -4 9
-23 -8 -23 -5 5 25 13 15 31 25 45 23 12 -1 22 3 23 9 0 6 4 2 8 -9 5 -12 4
-23 -3 -27 -7 -5 -4 -8 7 -8 10 0 20 -7 23 -15 4 -8 10 -13 14 -10 5 3 13 -2
18 -11 5 -10 14 -14 21 -9 9 5 8 12 -5 26 -22 24 -13 25 14 0 12 -10 19 -21
15 -25 -3 -3 1 -6 11 -6 9 0 14 4 11 10 -3 6 1 7 10 4 27 -11 -4 -36 -34 -30
-22 5 -23 5 -8 -5 10 -6 25 -8 33 -5 8 3 14 -1 14 -10 0 -8 5 -12 10 -9 6 3
10 0 11 -7 4 -47 19 84 25 222 5 91 10 152 12 135 2 -16 -1 -125 -7 -240z
m7076 218 c-3 -10 -5 -4 -5 12 0 17 2 24 5 18 2 -7 2 -21 0 -30z m-6700 -35
c-2 -13 -4 -3 -4 22 0 25 2 35 4 23 2 -13 2 -33 0 -45z m580 -80 c-2 -29 -3
-8 -3 47 0 55 1 79 3 53 2 -26 2 -71 0 -100z m-2506 -133 c2 -59 4 -68 6 -32
2 26 8 47 13 47 5 0 12 14 15 32 7 28 9 30 20 15 15 -20 29 -23 22 -3 -8 21
13 37 35 25 12 -6 18 -6 18 1 0 17 14 11 28 -11 8 -12 9 -18 3 -14 -7 4 -11
-6 -11 -26 0 -18 -8 -41 -17 -52 -17 -20 -17 -20 1 -14 13 5 17 3 13 -6 -3 -8
-1 -20 4 -28 7 -11 9 -11 9 3 0 9 5 20 11 24 8 4 9 -3 4 -25 -7 -33 4 -41 25
-16 7 8 17 15 23 15 6 0 19 8 29 17 18 16 19 16 8 -12 -11 -30 -5 -101 10
-110 5 -3 18 12 30 35 11 22 22 40 24 40 1 0 4 -24 5 -52 1 -29 3 -60 6 -68 4
-13 -10 -15 -83 -15 -132 0 -132 0 -132 -145 l0 -120 -55 0 -55 0 0 33 c0 17
-7 167 -15 332 -15 311 -17 474 -5 305 4 -52 9 -131 11 -175z m3747 258 c-10
-2 -26 -2 -35 0 -10 3 -2 5 17 5 19 0 27 -2 18 -5z m-681 -25 c-3 -8 -6 -5 -6
6 -1 11 2 17 5 13 3 -3 4 -12 1 -19z m5610 -15 c-3 -10 -5 -4 -5 12 0 17 2 24
5 18 2 -7 2 -21 0 -30z m-8277 -4 c15 -28 5 -23 -15 7 -9 15 -12 23 -6 20 6
-4 16 -16 21 -27z m7804 -17 c-4 -15 -8 -30 -8 -34 -2 -13 -16 -21 -16 -8 0
23 24 93 28 81 2 -7 1 -24 -4 -39z m995 -72 c1 -20 -7 -28 -43 -43 -24 -10
-47 -26 -51 -35 -3 -9 -9 -52 -12 -97 -4 -56 -10 -84 -21 -93 -13 -10 -17 -41
-20 -172 l-4 -160 -58 0 -57 0 -7 43 c-12 70 -56 421 -55 432 1 6 4 -3 8 -20
7 -31 28 -33 24 -2 -2 10 2 15 7 12 9 -5 14 16 13 52 -1 9 4 10 18 2 20 -10
26 0 9 17 -7 7 -1 9 21 6 27 -4 31 -2 26 12 -9 22 21 55 33 37 9 -16 17 -15
36 4 8 8 12 20 8 26 -4 7 -3 9 3 6 5 -4 20 3 32 14 20 18 35 25 64 28 4 1 8
11 8 24 2 25 17 -55 18 -93z m-8752 68 c-3 -7 -5 -2 -5 12 0 14 2 19 5 13 2
-7 2 -19 0 -25z m7473 -288 c2 -41 5 -60 7 -41 5 40 27 65 51 59 12 -4 18 1
19 14 2 17 0 18 -15 7 -9 -8 -14 -10 -10 -5 8 10 -15 36 -31 36 -6 0 -11 4
-11 9 0 5 16 8 35 5 27 -3 35 -1 35 11 0 9 4 14 9 10 5 -3 13 4 16 16 6 17 9
19 16 8 5 -8 9 -25 9 -38 0 -17 4 -22 16 -17 12 4 15 2 11 -9 -4 -8 -1 -17 5
-21 7 -5 9 8 5 42 l-6 49 15 -55 c8 -30 23 -62 34 -71 11 -9 16 -19 13 -23 -4
-3 3 -16 15 -29 19 -21 20 -31 17 -157 -4 -124 -18 -260 -31 -302 -4 -13 -16
-18 -45 -18 l-39 0 0 168 c0 92 -4 172 -8 178 -11 17 -80 44 -113 44 -29 0
-29 0 -29 63 0 34 -2 132 -4 217 -4 144 -3 147 4 40 4 -63 9 -149 10 -190z
m-7646 280 c-29 -11 -38 -28 -25 -43 8 -10 4 -13 -16 -12 -15 0 -28 7 -30 15
-4 13 -3 13 6 0 9 -13 11 -13 11 2 0 19 37 48 60 47 9 0 7 -4 -6 -9z m456 0
c-8 -5 -22 -9 -30 -9 -10 0 -8 3 5 9 27 12 43 12 25 0z m5757 -57 c-2 -16 -4
-5 -4 22 0 28 2 40 4 28 2 -13 2 -35 0 -50z m2200 35 c-3 -7 -5 -2 -5 12 0 14
2 19 5 13 2 -7 2 -19 0 -25z m150 10 c-3 -8 -6 -5 -6 6 -1 11 2 17 5 13 3 -3
4 -12 1 -19z m-8397 -7 c0 -6 -4 -13 -10 -16 -5 -3 -10 1 -10 9 0 9 5 16 10
16 6 0 10 -4 10 -9z m7837 -28 c-3 -10 -5 -4 -5 12 0 17 2 24 5 18 2 -7 2 -21
0 -30z m-5880 -50 c-2 -16 -4 -3 -4 27 0 30 2 43 4 28 2 -16 2 -40 0 -55z
m6450 30 c-3 -10 -5 -4 -5 12 0 17 2 24 5 18 2 -7 2 -21 0 -30z m-6060 -50
c-2 -16 -4 -3 -4 27 0 30 2 43 4 28 2 -16 2 -40 0 -55z m-980 -35 c-2 -18 -4
-4 -4 32 0 36 2 50 4 33 2 -18 2 -48 0 -65z m2060 70 c-3 -8 -6 -5 -6 6 -1 11
2 17 5 13 3 -3 4 -12 1 -19z m4464 -22 c0 -20 1 -21 9 -1 8 19 9 18 9 -4 1
-18 5 -22 20 -18 18 4 20 0 16 -49 -2 -29 -11 -66 -19 -81 -16 -29 -22 -24 -7
5 4 9 11 36 15 60 6 41 5 43 -24 53 -21 8 -30 17 -30 33 0 12 -6 28 -12 36
-11 12 -10 12 5 1 9 -7 17 -23 18 -35z m366 22 c-3 -8 -6 -5 -6 6 -1 11 2 17
5 13 3 -3 4 -12 1 -19z m-8474 -20 c-12 -13 -23 -32 -26 -43 -5 -19 -5 -19 -6
1 -1 19 31 64 46 64 4 0 -3 -10 -14 -22z m8634 -10 c-3 -8 -6 -5 -6 6 -1 11 2
17 5 13 3 -3 4 -12 1 -19z m-115 -304 l14 -149 -76 0 c-42 -1 -102 -9 -137
-19 l-63 -19 0 -127 0 -127 -37 -7 c-70 -11 -73 -10 -73 33 0 22 -7 46 -15 54
-29 30 -69 403 -46 431 7 8 17 27 22 43 8 26 9 26 4 -7 -4 -32 -3 -31 25 22
37 71 59 98 77 91 9 -4 11 0 7 12 -7 16 -5 16 26 0 18 -9 29 -12 26 -7 -4 6
-2 13 4 17 5 3 10 0 11 -7 0 -7 4 -3 9 8 6 15 16 21 34 19 14 -2 24 0 23 3 -3
9 7 12 39 12 17 0 23 -4 18 -12 -4 -7 -4 -10 1 -6 4 4 16 3 26 -3 15 -7 19 -6
19 6 0 8 5 15 10 15 6 0 11 10 11 23 2 40 28 -147 41 -299z m-8201 289 c13
-16 12 -17 -3 -4 -10 7 -18 15 -18 17 0 8 8 3 21 -13z m3414 -3 c4 -6 -7 -10
-24 -10 -17 0 -31 5 -31 10 0 6 11 10 24 10 14 0 28 -4 31 -10z m4596 -7 c13
-16 12 -17 -3 -4 -10 7 -18 15 -18 17 0 8 8 3 21 -13z m-7021 -16 c0 -26 -24
-47 -40 -37 -11 7 -11 11 1 26 9 11 9 15 2 10 -13 -7 -18 6 -7 17 13 13 44 2
44 -16z m6597 17 c-3 -3 -12 -4 -19 -1 -8 3 -5 6 6 6 11 1 17 -2 13 -5z m740
-26 c-3 -7 -5 -2 -5 12 0 14 2 19 5 13 2 -7 2 -19 0 -25z m-7467 2 c0 -5 -2
-10 -4 -10 -3 0 -8 5 -11 10 -3 6 -1 10 4 10 6 0 11 -4 11 -10z m7083 -11 c-8
-8 -13 -7 -18 2 -5 8 -4 10 3 5 7 -4 12 -2 12 5 0 7 3 9 7 6 4 -4 2 -12 -4
-18z m-7804 -66 c-1 -43 -4 -68 -6 -55 -2 12 -10 22 -16 21 -32 -4 -34 2 -18
37 l16 36 6 -33 c5 -29 7 -27 8 19 0 28 3 52 6 52 3 0 4 -35 4 -77z m-145 -18
c-4 -8 -5 -15 -3 -16 2 0 24 -3 49 -6 46 -5 86 -21 77 -30 -3 -2 -14 0 -25 6
-12 6 -46 11 -76 11 -31 0 -56 5 -56 10 0 6 5 10 10 10 6 0 10 7 10 15 0 8 4
15 10 15 5 0 7 -7 4 -15z m3456 -51 c0 -2 -18 -4 -41 -4 -22 0 -38 4 -35 8 5
8 76 4 76 -4z m230 -24 c0 -12 -37 -12 -65 0 -15 7 -10 9 23 9 23 1 42 -3 42
-9z m-3751 -76 c1 -28 -2 -31 -24 -26 -23 4 -25 9 -24 51 1 25 4 36 6 23 5
-27 23 -19 24 11 1 20 2 20 9 -3 4 -14 8 -39 9 -56z m3514 -81 c-7 -2 -21 -2
-30 0 -10 3 -4 5 12 5 17 0 24 -2 18 -5z m180 -20 c-7 -2 -19 -2 -25 0 -7 3
-2 5 12 5 14 0 19 -2 13 -5z m9 -189 c10 -9 -4 -44 -17 -44 -12 0 -25 21 -25
41 0 10 33 13 42 3z m4078 -44 c0 -16 -4 -30 -10 -30 -11 0 -14 43 -3 53 11
12 13 8 13 -23z m-6098 -542 c-5 -19 -7 -20 -10 -5 -2 9 -8 15 -13 12 -5 -4
-9 -1 -9 4 0 6 9 11 19 11 15 0 18 -5 13 -22z m535 -55 c-3 -10 -5 -4 -5 12 0
17 2 24 5 18 2 -7 2 -21 0 -30z m543 -163 l-25 -8 23 -7 c59 -19 2 -24 -220
-19 -241 5 -392 19 -382 35 3 5 146 9 317 8 175 -1 301 -5 287 -9z"/>
<path d="M11279 4723 c-13 -16 -12 -17 4 -4 16 13 21 21 13 21 -2 0 -10 -8
-17 -17z"/>
<path d="M7535 9690 c-104 -14 -197 -53 -240 -100 -16 -18 -17 -23 -5 -30 40
-25 154 2 298 70 56 27 102 54 102 59 0 12 -64 12 -155 1z"/>
<path d="M6749 9228 c-29 -35 -46 -57 -36 -49 20 16 101 111 94 111 -2 0 -28
-28 -58 -62z"/>
<path d="M6649 9113 c-13 -16 -12 -17 4 -4 9 7 17 15 17 17 0 8 -8 3 -21 -13z"/>
<path d="M6906 7093 c-32 -135 -60 -252 -63 -259 -4 -11 17 -14 116 -14 121 0
121 0 116 23 -6 25 -33 156 -74 354 -15 73 -30 135 -32 138 -3 2 -31 -106 -63
-242z"/>
<path d="M10384 7396 c-66 -30 -98 -127 -114 -352 -19 -271 -8 -591 26 -704
23 -77 77 -130 133 -130 89 0 129 51 158 202 13 65 16 155 17 413 1 349 -8
433 -51 507 -37 64 -109 91 -169 64z"/>
<path d="M2127 7143 c-4 -3 -7 -114 -7 -245 0 -223 1 -239 18 -234 9 2 35 7
58 11 103 16 145 78 152 226 6 123 -9 190 -50 224 -25 21 -40 25 -97 25 -37 0
-71 -3 -74 -7z"/>
<path d="M2160 6562 l-35 -7 -3 -260 c-1 -143 0 -265 2 -271 6 -17 112 2 160
29 49 27 82 88 97 177 21 131 -10 268 -71 312 -28 20 -98 30 -150 20z"/>
<path d="M8510 5712 c-79 -79 -79 -204 -1 -275 44 -40 94 -52 149 -38 121 33
153 224 52 315 -37 33 -45 36 -101 36 -58 0 -64 -2 -99 -38z"/>
<path d="M4991 5612 c-19 -53 -36 -103 -39 -110 -4 -11 10 -13 74 -7 43 4 81
9 82 10 5 5 -72 205 -78 205 -3 0 -20 -44 -39 -98z"/>
<path d="M6255 4745 c-22 -21 -25 -33 -25 -95 l0 -70 55 0 55 0 0 73 c0 60 -4
77 -20 95 -26 28 -35 28 -65 -3z"/>
<path d="M6397 4732 c-13 -14 -17 -38 -17 -89 0 -69 1 -71 28 -76 15 -3 35 -9
45 -12 15 -6 17 1 17 74 0 68 -3 84 -20 101 -25 25 -32 25 -53 2z"/>
<path d="M6116 4718 c-17 -23 -24 -168 -8 -168 4 0 24 5 45 11 l37 10 0 72 c0
44 -5 78 -12 85 -19 19 -45 14 -62 -10z"/>
<path d="M6507 4683 c-4 -3 -7 -39 -7 -78 0 -67 2 -73 25 -83 l25 -12 0 71 c0
85 -18 128 -43 102z"/>
<path d="M6318 4403 c6 -2 18 -2 25 0 6 3 1 5 -13 5 -14 0 -19 -2 -12 -5z"/>
<path d="M4502 4378 c-5 -7 -12 -78 -14 -157 l-3 -145 160 -27 c98 -16 148
-28 130 -31 -16 -2 2 -4 40 -4 39 0 133 -10 210 -22 269 -42 410 -62 443 -62
l32 0 0 140 c0 131 -1 140 -21 150 -16 9 -26 8 -45 -5 -23 -15 -24 -19 -24
-142 0 -158 -18 -156 -23 2 l-3 110 -2 -112 c-1 -62 -5 -113 -9 -113 -5 0 -7
57 -5 126 3 108 1 129 -14 145 -22 24 -46 24 -67 1 -14 -15 -17 -41 -17 -140
0 -67 -4 -122 -8 -122 -4 0 -6 58 -4 129 4 121 3 130 -17 150 -26 26 -36 26
-61 1 -18 -18 -20 -33 -20 -140 0 -159 -19 -161 -22 -2 l-2 117 -3 -112 c-2
-71 -8 -113 -14 -113 -7 0 -8 38 -4 120 7 102 5 123 -9 145 -18 27 -56 34 -74
12 -6 -6 -12 -69 -13 -140 -2 -86 -7 -127 -14 -127 -9 0 -10 37 -7 130 4 115
3 133 -13 150 -23 25 -47 25 -68 2 -14 -15 -17 -41 -17 -141 0 -108 -2 -122
-16 -117 -9 3 -20 6 -25 6 -5 0 -9 59 -9 133 0 117 -2 136 -18 150 -25 23 -48
21 -66 -5 -13 -18 -16 -51 -16 -150 0 -88 -3 -128 -11 -128 -8 0 -10 36 -4
129 4 72 4 139 0 150 -10 34 -42 45 -71 26 -20 -13 -24 -23 -24 -68 0 -28 -3
-89 -6 -133 l-7 -81 -26 10 -26 10 3 138 c5 149 -1 169 -43 169 -12 0 -27 -6
-33 -12z"/>
<path d="M4871 4225 l1 -50 10 38 c7 28 7 42 -1 50 -8 8 -11 -2 -10 -38z"/>
<path d="M3998 4223 c6 -2 18 -2 25 0 6 3 1 5 -13 5 -14 0 -19 -2 -12 -5z"/>
<path d="M3858 4213 c7 -3 16 -2 19 1 4 3 -2 6 -13 5 -11 0 -14 -3 -6 -6z"/>
<path d="M4060 4211 c18 -11 131 -33 138 -27 5 5 -56 21 -113 30 -26 4 -35 3
-25 -3z"/>
<path d="M4078 4173 c6 -2 18 -2 25 0 6 3 1 5 -13 5 -14 0 -19 -2 -12 -5z"/>
<path d="M5631 4134 c0 -11 3 -14 6 -6 3 7 2 16 -1 19 -3 4 -6 -2 -5 -13z"/>
<path d="M4683 4023 c9 -2 23 -2 30 0 6 3 -1 5 -18 5 -16 0 -22 -2 -12 -5z"/>
<path d="M5230 3941 c14 -4 52 -10 85 -14 33 -3 49 -2 35 2 -14 4 -52 10 -85
14 -33 3 -49 2 -35 -2z"/>
<path d="M4854 3761 c0 -26 6 -46 14 -49 8 -2 12 9 10 40 l-1 43 -6 -40 -5
-40 -7 45 -7 45 2 -44z"/>
<path d="M5621 3692 c-1 -45 3 -82 8 -82 14 0 18 105 5 137 -10 24 -12 17 -13
-55z"/>
<path d="M5371 3695 l2 -60 7 50 c4 28 3 54 -1 60 -5 5 -8 -16 -8 -50z"/>
<path d="M7750 4072 c0 -29 4 -42 14 -42 17 0 16 54 -2 72 -9 9 -12 3 -12 -30z"/>
<path d="M9018 4233 c7 -3 16 -2 19 1 4 3 -2 6 -13 5 -11 0 -14 -3 -6 -6z"/>
<path d="M8885 4215 c-32 -8 -41 -13 -25 -14 14 0 48 6 75 13 63 18 18 19 -50
1z"/>
<path d="M8358 4163 c6 -2 10 -9 6 -14 -9 -15 13 -10 26 6 11 13 8 15 -16 14
-16 0 -23 -3 -16 -6z"/>
<path d="M8575 4150 c-3 -6 1 -7 9 -4 18 7 21 14 7 14 -6 0 -13 -4 -16 -10z"/>
<path d="M9076 4163 c5 -5 12 -12 16 -18 4 -6 8 -2 8 8 0 9 -7 17 -17 17 -9 0
-12 -3 -7 -7z"/>
<path d="M9023 4075 c0 -38 2 -53 4 -32 2 20 2 52 0 70 -2 17 -4 1 -4 -38z"/>
<path d="M9103 3975 c0 -27 2 -38 4 -22 2 15 2 37 0 50 -2 12 -4 0 -4 -28z"/>
<path d="M9022 3937 c1 -45 4 -57 16 -52 7 3 21 5 30 5 13 0 14 2 4 9 -7 4
-12 12 -11 17 1 5 -3 20 -9 34 -6 15 -11 19 -12 10 -1 -8 -6 -4 -10 10 -7 19
-8 10 -8 -33z"/>
<path d="M8542 3880 c0 -14 2 -19 5 -12 2 6 2 18 0 25 -3 6 -5 1 -5 -13z"/>
<path d="M8042 3895 c0 -16 2 -22 5 -12 2 9 2 23 0 30 -3 6 -5 -1 -5 -18z"/>
<path d="M4848 3653 c6 -2 18 -2 25 0 6 3 1 5 -13 5 -14 0 -19 -2 -12 -5z"/>
<path d="M5083 3623 c9 -2 23 -2 30 0 6 3 -1 5 -18 5 -16 0 -22 -2 -12 -5z"/>
<path d="M5138 3613 c6 -2 18 -2 25 0 6 3 1 5 -13 5 -14 0 -19 -2 -12 -5z"/>
<path d="M5228 3603 c6 -2 9 -10 5 -16 -4 -7 -8 -16 -8 -22 -1 -5 -7 -9 -15
-7 -10 2 -12 0 -5 -6 6 -5 37 -12 70 -15 33 -3 52 -3 43 0 -19 5 -22 52 -3 54
5 1 -1 5 -15 9 -27 9 -93 12 -72 3z"/>
<path d="M4998 3573 c6 -2 18 -2 25 0 6 3 1 5 -13 5 -14 0 -19 -2 -12 -5z"/>
<path d="M5455 3571 c3 -5 1 -12 -5 -16 -6 -4 -8 -11 -5 -16 4 -5 -13 -10 -37
-10 -35 -1 -28 -4 37 -14 100 -17 156 -19 135 -5 -11 7 -12 10 -2 10 7 0 20 7
28 15 9 8 25 16 37 16 35 2 -103 28 -151 29 -24 0 -41 -4 -37 -9z"/>
<path d="M8840 3730 c-17 -6 -9 -7 25 -3 28 3 52 7 54 9 8 7 -54 2 -79 -6z"/>
<path d="M8325 3720 l-40 -7 35 -1 c19 -1 42 3 50 8 16 11 14 11 -45 0z"/>
<path d="M8618 3693 c6 -2 18 -2 25 0 6 3 1 5 -13 5 -14 0 -19 -2 -12 -5z"/>
<path d="M8495 3679 c-13 -6 -4 -7 30 -3 28 4 52 8 54 10 9 8 -65 2 -84 -7z"/>
<path d="M7445 3600 c-4 -6 6 -10 24 -10 16 0 33 5 36 10 4 6 -6 10 -24 10
-16 0 -33 -4 -36 -10z"/>
<path d="M7283 3593 c-18 -2 -33 -8 -33 -13 0 -5 -8 -7 -17 -4 -10 3 -8 -1 5
-8 12 -8 19 -17 16 -21 -4 -4 -2 -7 5 -7 7 0 9 -4 6 -10 -8 -13 14 -13 154 3
107 11 112 12 61 17 -49 4 -55 7 -54 28 1 20 -3 22 -55 20 -31 0 -71 -3 -88
-5z"/>
<path d="M3393 3570 c0 -41 2 -58 4 -37 2 20 2 54 0 75 -2 20 -4 3 -4 -38z"/>
<path d="M3468 3360 c-7 -24 -3 -38 8 -28 3 4 4 17 2 30 l-3 23 -7 -25z"/>
<path d="M3703 3670 c0 -25 2 -35 4 -22 2 12 2 32 0 45 -2 12 -4 2 -4 -23z"/>
<path d="M3772 3635 c0 -16 2 -22 5 -12 2 9 2 23 0 30 -3 6 -5 -1 -5 -18z"/>
<path d="M3980 3612 l0 -60 40 4 c25 2 39 0 35 -6 -3 -6 -1 -10 5 -10 7 0 10
20 9 55 -2 51 -5 56 -28 61 -14 3 -34 8 -43 11 -16 4 -18 -3 -18 -55z"/>
<path d="M4260 3602 c0 -11 7 -18 19 -18 11 0 17 5 14 13 -4 9 1 11 13 7 16
-5 16 -4 4 5 -23 17 -50 13 -50 -7z"/>
<path d="M5237 2278 c-9 -71 -9 -178 1 -329 7 -122 7 -120 13 121 5 234 -1
322 -14 208z"/>
<path d="M5812 2045 l1 -90 9 62 c6 41 6 72 0 90 -8 22 -10 10 -10 -62z"/>
<path d="M6813 1865 c0 -33 2 -45 4 -27 2 18 2 45 0 60 -2 15 -4 0 -4 -33z"/>
<path d="M6368 1663 c7 -3 16 -2 19 1 4 3 -2 6 -13 5 -11 0 -14 -3 -6 -6z"/>
<path d="M11013 3020 c0 -30 2 -43 4 -27 2 15 2 39 0 55 -2 15 -4 2 -4 -28z"/>
<path d="M1635 2980 c-3 -5 -1 -10 4 -10 6 0 11 5 11 10 0 6 -2 10 -4 10 -3 0
-8 -4 -11 -10z"/>
<path d="M1561 2744 c0 -11 3 -14 6 -6 3 7 2 16 -1 19 -3 4 -6 -2 -5 -13z"/>
<path d="M10620 2818 c-3 -26 -1 -43 3 -39 5 5 7 26 5 47 l-3 39 -5 -47z"/>
</g>
</svg>
